Coordinates
version=1
nRows=21
nColumns=12
inDegrees=yes

Units are S.I. units (second, meters, Newtons, ...)
Angles are in degrees

endheader
time	SC_y	SC_z	SC_x	AC_y	AC_z	AC_x	GH_y	GH_z	GH_yy	EL_x	PS_y
       0.0              -45.51          -1.42          8.169          47.87         -10.92          -14.0         -44.26          16.79         -66.45          90.33          52.56
   0.04707              -45.51         -1.419          8.171          47.87         -10.92          -14.0         -44.25          16.79         -66.43          90.34          52.57
   0.09414              -45.51         -1.418          8.172          47.87         -10.92          -14.0         -44.23           16.8         -66.41          90.35          52.59
    0.1412              -45.51         -1.416          8.174          47.86         -10.92          -14.0         -44.21           16.8         -66.38          90.35          52.61
    0.1883              -45.52         -1.415          8.175          47.86         -10.92          -14.0         -44.19           16.8         -66.36          90.36          52.62
    0.2353              -45.52         -1.413          8.177          47.86         -10.92          -14.0         -44.17          16.81         -66.33          90.37          52.64
    0.2824              -45.52         -1.411          8.179          47.86         -10.92          -14.0         -44.14          16.81          -66.3          90.38          52.66
    0.3295              -45.52          -1.41          8.181          47.86         -10.92          -14.0         -44.12          16.82         -66.27          90.39          52.68
    0.3766              -45.52         -1.408          8.183          47.85         -10.92          -14.0         -44.09          16.82         -66.24           90.4          52.71
    0.4236              -45.53         -1.405          8.186          47.85         -10.92          -14.0         -44.07          16.83          -66.2          90.41          52.73
    0.4707              -45.53         -1.403          8.188          47.85         -10.92          -14.0         -44.03          16.84         -66.16          90.42          52.76
    0.5178              -45.53         -1.401          8.191          47.84         -10.92          -14.0          -44.0          16.84         -66.12          90.44          52.79
    0.5648              -45.54         -1.398          8.194          47.84         -10.92          -14.0         -43.97          16.85         -66.07          90.45          52.82
    0.6119              -45.54         -1.395          8.197          47.84         -10.92          -14.0         -43.93          16.86         -66.02          90.47          52.85
     0.659              -45.54         -1.392          8.201          47.83         -10.92         -14.01         -43.89          16.87         -65.97          90.48          52.89
     0.706              -45.55         -1.389          8.204          47.83         -10.92         -14.01         -43.84          16.88         -65.91           90.5          52.93
    0.7531              -45.55         -1.385          8.208          47.82         -10.92         -14.01         -43.79          16.89         -65.85          90.52          52.97
    0.8002              -45.56         -1.381          8.213          47.82         -10.92         -14.01         -43.74           16.9         -65.78          90.54          53.02
    0.8472              -45.56         -1.377          8.218          47.81         -10.92         -14.01         -43.68          16.91         -65.71          90.57          53.07
    0.8943              -45.57         -1.372          8.223           47.8         -10.92         -14.01         -43.62          16.92         -65.63          90.59          53.12
    0.9414              -45.57         -1.367          8.229           47.8         -10.92         -14.01         -43.55          16.94         -65.54          90.62          53.18
